# xmcd CD database file
# Copyright (C) 1993-1998 Ti Kan
# 
# Track frame offsets:
#     150
#     17705
#     33475
#     49372
#     63889
#     76910
#     91987
#     110047
#     119192
#     142367
#     155460
#     175337
# 
# Disc length: 2498 seconds
# 
# Revision: 1
# Processed by: cddbd v1.4b41PL1 Copyright (c) Steve Scherf et al.
# Submitted via: DiscPlay 4.0.4
# 
DISCID=ac09c00c
DTITLE=Lisa Sabroe - Free Ride
DYEAR=1900
DGENRE=
TTITLE0=Free ride
TTITLE1=Ghost riders
TTITLE2=Devils right hand
TTITLE3=Red dresses
TTITLE4=Rockin  the rock
TTITLE5=Jealous bone
TTITLE6=Midnight fun
TTITLE7=I ve just seen a face
TTITLE8=Take it like a man
TTITLE9=Used to be
TTITLE10=Littel green frog
TTITLE11=Tears and Laughter
EXTD=
EXTT0=
EXTT1=
EXTT2=
EXTT3=
EXTT4=
EXTT5=
EXTT6=
EXTT7=
EXTT8=
EXTT9=
EXTT10=
EXTT11=
PLAYORDER=
